<?xml version="1.0" standalone="no"?>
<!DOCTYPE svg PUBLIC "-//W3C//DTD SVG 20010904//EN"
 "http://www.w3.org/TR/2001/REC-SVG-20010904/DTD/svg10.dtd">
<svg version="1.0" xmlns="http://www.w3.org/2000/svg"
 width="256.000000pt" height="54.000000pt" viewBox="0 0 256.000000 54.000000"
 preserveAspectRatio="xMidYMid meet">

<g transform="translate(0.000000,54.000000) scale(0.100000,-0.100000)"
fill="#000000" stroke="none">
<path d="M0 270 l0 -270 1280 0 1280 0 0 270 0 270 -1280 0 -1280 0 0 -270z
m2510 5 l0 -235 -995 0 -995 0 0 235 0 235 995 0 995 0 0 -235z m-2380 183 c0
-9 4 -8 10 2 9 13 11 13 20 0 9 -13 11 -13 21 0 9 12 12 13 16 1 5 -11 7 -11
14 0 8 12 11 11 19 -1 9 -13 11 -13 21 0 9 12 12 13 16 1 5 -11 7 -11 14 0 8
12 11 11 19 -1 9 -13 11 -13 21 0 9 12 12 13 16 1 5 -11 7 -11 14 0 8 12 11
11 19 -1 9 -13 11 -13 20 0 9 13 11 13 21 0 8 -11 12 -12 16 -3 3 10 9 9 20
-3 13 -12 13 -18 4 -24 -10 -6 -10 -9 -1 -15 9 -6 9 -10 -1 -16 -12 -8 -11
-11 1 -20 12 -9 13 -12 1 -16 -11 -5 -11 -7 0 -14 12 -8 11 -11 -1 -19 -12 -8
-13 -11 -1 -19 10 -6 10 -10 1 -16 -9 -6 -9 -10 1 -17 12 -8 12 -10 0 -15 -11
-5 -11 -7 0 -14 12 -8 11 -11 -1 -20 -12 -9 -13 -12 -1 -16 11 -5 11 -7 0 -14
-12 -8 -11 -11 1 -20 12 -9 13 -12 1 -16 -11 -5 -11 -7 0 -14 12 -8 11 -11 -1
-19 -13 -9 -13 -11 0 -20 13 -9 13 -11 0 -19 -9 -6 -19 -6 -26 0 -8 7 -14 6
-17 -3 -4 -10 -8 -10 -17 2 -9 12 -12 13 -17 1 -5 -11 -7 -11 -14 0 -8 12 -11
11 -20 -1 -8 -12 -12 -12 -16 -2 -4 9 -8 10 -18 2 -10 -8 -15 -8 -20 1 -6 8
-10 7 -16 -2 -8 -12 -10 -12 -18 0 -6 9 -10 10 -16 2 -5 -9 -10 -9 -20 -1 -10
8 -14 7 -18 -2 -4 -10 -7 -10 -15 1 -7 9 -11 10 -17 2 -5 -9 -10 -9 -21 0 -10
8 -14 8 -14 0 0 -16 -29 -14 -46 3 -11 11 -11 16 -1 19 9 4 8 8 -3 17 -12 9
-13 12 -1 17 11 5 11 7 0 14 -12 8 -11 11 1 20 12 9 13 12 1 16 -11 5 -11 7 0
14 12 8 11 11 -1 19 -12 8 -13 11 -1 19 10 6 10 10 1 16 -9 6 -9 10 1 16 12 8
12 10 0 18 -11 7 -11 9 0 14 12 4 11 7 -1 16 -13 10 -13 12 0 22 12 9 13 12 1
16 -11 5 -11 7 0 14 12 8 11 11 -1 19 -12 8 -13 11 -1 19 11 7 11 9 0 13 -11
4 -10 8 1 21 18 19 50 22 50 5z"/>
<path d="M590 265 l0 -125 35 0 34 0 3 68 3 67 45 -67 c42 -63 47 -68 83 -68
l37 0 0 125 0 125 -35 0 -34 0 -3 -67 -3 -68 -45 67 c-42 63 -47 68 -82 68
l-38 0 0 -125z"/>
<path d="M921 364 c-49 -41 -58 -99 -26 -177 18 -45 134 -63 201 -31 32 16 34
19 34 70 l0 54 -60 0 c-57 0 -60 -1 -60 -25 0 -20 5 -25 25 -25 28 0 34 -24 9
-34 -50 -19 -94 13 -94 69 0 60 52 94 90 60 13 -12 26 -13 55 -7 l38 7 -28 33
c-25 30 -31 32 -90 32 -54 0 -68 -4 -94 -26z"/>
<path d="M1180 265 l0 -125 105 0 105 0 0 30 0 30 -65 0 c-63 0 -65 1 -65 25
0 24 3 25 61 25 57 0 60 1 57 23 -3 19 -10 22 -60 25 -50 3 -58 6 -58 22 0 18
7 20 65 20 63 0 65 1 65 25 l0 25 -105 0 -105 0 0 -125z"/>
<path d="M1430 265 l0 -125 36 0 36 0 -4 80 c-2 44 0 80 3 80 3 0 14 -36 24
-81 18 -79 19 -80 48 -77 29 3 32 7 53 83 l22 80 1 -82 1 -83 35 0 35 0 0 125
0 125 -53 0 -53 0 -19 -71 c-20 -78 -26 -76 -45 14 l-13 57 -54 0 -53 0 0
-125z"/>
<path d="M1814 333 c-12 -32 -33 -88 -47 -125 l-26 -68 39 0 c30 0 40 5 45 20
5 16 15 20 52 20 36 0 46 -4 50 -20 4 -16 14 -20 44 -20 22 0 39 3 39 8 0 4
-20 59 -44 122 l-43 115 -44 3 -44 3 -21 -58z m86 -85 c0 -11 -7 -18 -18 -18
-28 0 -31 7 -19 53 l11 42 12 -30 c7 -17 13 -38 14 -47z"/>
<path d="M2040 265 l0 -125 35 0 34 0 3 67 3 68 48 -68 c43 -60 51 -67 83 -67
l34 0 0 125 0 125 -35 0 -34 0 -3 -66 -3 -67 -45 66 c-42 62 -48 67 -82 67
l-38 0 0 -125z"/>
<path d="M2325 208 c-32 -38 -29 -81 11 -116 42 -37 102 -24 129 28 46 89 -75
166 -140 88z m118 -10 c37 -44 6 -108 -53 -108 -35 0 -70 31 -70 61 0 69 77
99 123 47z"/>
<path d="M2350 155 c0 -25 5 -45 10 -45 6 0 10 9 10 20 0 11 3 20 8 20 4 0 13
-9 20 -20 15 -25 37 -27 23 -2 -5 9 -7 30 -4 45 5 25 3 27 -31 27 l-36 0 0
-45z m53 20 c1 -5 -6 -11 -15 -13 -11 -2 -18 3 -18 13 0 17 30 18 33 0z"/>
<path d="M140 270 l0 -140 119 0 c113 0 120 1 126 21 11 34 -8 41 -99 38 l-86
-4 0 32 c0 17 5 35 10 38 6 3 10 1 10 -4 0 -7 30 -11 79 -11 72 0 80 2 86 21
11 34 -8 41 -99 38 l-86 -4 0 32 c0 17 5 35 10 38 6 3 10 1 10 -5 0 -7 27 -10
83 -8 80 3 82 4 82 28 l0 25 -122 3 -123 3 0 -141z"/>
</g>
</svg>
